<svg width="76" height="76" viewBox="0 0 76 76" fill="none" xmlns="http://www.w3.org/2000/svg">
<path d="M67.5986 44.8359C68.0234 42.7852 68.2871 40.6025 68.2871 38.4199C68.2871 21.7939 54.8252 8.34668 38.2139 8.34668C36.0312 8.34668 33.8633 8.5957 31.7979 9.03516C29.0146 6.88184 25.5576 5.60742 21.793 5.60742C12.7402 5.60742 5.38672 12.9609 5.38672 22.0137C5.38672 25.7783 6.66113 29.2354 8.7998 32.0039C8.375 34.0547 8.11133 36.2373 8.11133 38.4199C8.11133 55.0459 21.5732 68.4932 38.1846 68.4932C40.3672 68.4932 42.5352 68.2441 44.6006 67.8047C47.3838 69.9434 50.8408 71.2178 54.5908 71.2178C63.6436 71.2178 70.9971 63.8643 70.9971 54.8115C71.0117 51.0615 69.7373 47.6045 67.5986 44.8359ZM39.0928 58.2393C29.4834 58.2393 21.4414 53.9619 21.4414 48.7178C21.4414 46.374 22.7598 44.2354 25.7627 44.2354C30.333 44.2354 30.7578 50.8125 38.668 50.8125C42.4326 50.8125 44.8643 49.1426 44.8643 46.96C44.8643 44.2207 42.5205 43.7959 38.7119 42.8584C29.5566 40.6025 21.4561 39.6357 21.4561 30.085C21.4561 21.4131 30.04 18.2051 37.4375 18.2051C45.5088 18.2051 53.668 21.4131 53.668 26.3203C53.668 28.7959 51.998 30.9785 49.2295 30.9785C45.084 30.9785 44.9521 26.0713 38.2432 26.0713C34.4785 26.0713 32.0908 27.0967 32.0908 29.3672C32.0908 32.2676 35.1377 32.5605 42.2129 34.2012C48.2773 35.5635 55.499 38.127 55.499 45.5684C55.499 54.2256 47.1348 58.2393 39.0928 58.2393Z" fill="#555555" fill-opacity="0.333"/>
</svg>
