<svg width="41" height="40" viewBox="0 0 41 40" fill="none" xmlns="http://www.w3.org/2000/svg">
<path fill-rule="evenodd" clip-rule="evenodd" d="M26.8608 4.08196C27.3969 2.78782 27.6728 1.40077 27.6728 0H17.0061V10.6667C18.4069 10.6667 19.7939 10.3908 21.0881 9.85472C22.3822 9.31867 23.5581 8.53297 24.5486 7.54248C25.5391 6.55198 26.3248 5.3761 26.8608 4.08196ZM40.1172 20.0798C40.1172 25.3629 38.0101 30.4297 34.2594 34.1655C30.5086 37.9013 25.4215 40 20.1172 40C14.8129 40 9.72581 37.9013 5.97504 34.1655C2.22428 30.4297 0.117188 25.3629 0.117188 20.0798H11.8544C11.8544 22.2625 12.7251 24.3557 14.2746 25.8991C15.8241 27.4424 17.9257 28.3096 20.1172 28.3096C22.3087 28.3096 24.4103 27.4424 25.9598 25.8991C27.5093 24.3557 28.38 22.2625 28.38 20.0798H40.1172Z" fill="black"/>
</svg>
