<svg width="76" height="75" viewBox="0 0 76 75" fill="none" xmlns="http://www.w3.org/2000/svg">
<path d="M38.6992 0.503418C43.3213 0.567604 47.8911 1.52128 52.1649 3.31549C56.5928 5.17437 60.6166 7.89916 64.0062 11.3346C67.3959 14.77 70.0851 18.8489 71.9199 23.3384C73.7547 27.828 74.6992 32.6401 74.6992 37.4999C74.6992 42.3597 73.7547 47.1718 71.9199 51.6614C70.0851 56.1509 67.3959 60.2298 64.0062 63.6652C60.6166 67.1007 56.5928 69.8255 52.1649 71.6844C47.8911 73.4786 43.3213 74.4322 38.6992 74.4964V37.4999V0.503418Z" stroke="white"/>
<path d="M58.6935 31.5C58.5574 38.6041 55.5252 45.395 50.2137 50.4363C44.7769 55.5967 37.3978 58.5 29.6983 58.5C21.9989 58.5 14.6197 55.5967 9.18291 50.4363C3.87148 45.395 0.839222 38.6041 0.703125 31.5H29.6983H58.6935Z" stroke="white"/>
<path d="M28.5569 16.5713H19.9141V25.2141H28.5569V16.5713Z" stroke="white"/>
</svg>
