<svg width="24" height="25" viewBox="0 0 24 25" fill="none" xmlns="http://www.w3.org/2000/svg">
<path opacity="0.1" d="M24 12.77C24 6.1426 18.6274 0.77002 12 0.77002C5.37258 0.77002 0 6.1426 0 12.77C0 19.3974 5.37258 24.77 12 24.77C18.6274 24.77 24 19.3974 24 12.77Z" fill="#121212"/>
<path d="M15.4287 9.77062C15.1783 9.52473 14.841 9.38744 14.49 9.38851L10.4377 9.38379C10.2614 9.38431 10.0926 9.45456 9.96792 9.57919C9.84329 9.70382 9.77304 9.8727 9.77252 10.0489C9.77216 10.137 9.78924 10.2243 9.82277 10.3057C9.85631 10.3872 9.90564 10.4611 9.96792 10.5234C10.0302 10.5857 10.1042 10.635 10.1856 10.6686C10.2671 10.7021 10.3543 10.7192 10.4424 10.7188L13.5418 10.7141L8.82431 15.4315C8.6992 15.5567 8.62891 15.7263 8.62891 15.9033C8.62891 16.0802 8.6992 16.2499 8.82431 16.375C8.94943 16.5001 9.11912 16.5704 9.29606 16.5704C9.473 16.5704 9.64269 16.5001 9.7678 16.375L14.4853 11.6576V14.7617C14.4846 14.9387 14.5544 15.1087 14.6791 15.2344C14.8038 15.36 14.9734 15.4309 15.1504 15.4315C15.3275 15.4322 15.4975 15.3624 15.6231 15.2377C15.7487 15.113 15.8197 14.9434 15.8203 14.7664L15.8156 10.7141C15.8166 10.3608 15.6775 10.0215 15.4287 9.77062Z" fill="#555555"/>
</svg>
