<svg width="415" height="415" viewBox="0 0 415 415" fill="none" xmlns="http://www.w3.org/2000/svg">
<rect x="0.5" y="0.5" width="414" height="414" rx="207" stroke="#EEF1F2"/>
<path d="M197.551 208.762V211.398H175.461V233.605H172.59V211.398H150.5V208.762H172.59V186.555H175.461V208.762H197.551ZM241.379 194.641C249.348 194.641 255.969 197.102 261.242 202.023C266.555 206.945 269.211 213.039 269.211 220.305C269.211 227.961 266.438 234.328 260.891 239.406C255.344 244.445 248.273 246.965 239.68 246.965C230.539 246.965 223.234 244.309 217.766 238.996C212.297 233.645 209.562 226.164 209.562 216.555C209.562 208.234 211.672 200.246 215.891 192.59C220.109 184.895 225.871 178.312 233.176 172.844C240.52 167.375 248.742 163.508 257.844 161.242L258.547 164.113C246.32 167.512 236.281 173.215 228.43 181.223C220.617 189.23 215.656 198.41 213.547 208.762C215.734 204.309 219.406 200.852 224.562 198.391C229.719 195.891 235.324 194.641 241.379 194.641ZM239.797 243.918C247.297 243.918 253.527 241.691 258.488 237.238C263.488 232.746 265.988 227.102 265.988 220.305C265.988 213.859 263.625 208.469 258.898 204.133C254.172 199.797 248.176 197.629 240.91 197.629C238.293 197.629 235.695 197.883 233.117 198.391C230.578 198.898 228.078 199.719 225.617 200.852C223.156 201.945 220.988 203.312 219.113 204.953C217.238 206.594 215.715 208.645 214.543 211.105C213.41 213.527 212.844 216.223 212.844 219.191C212.844 226.418 215.305 232.355 220.227 237.004C225.148 241.613 231.672 243.918 239.797 243.918Z" fill="#004E50"/>
<path d="M286.481 165.001V169.203H284.832V163.246H293.591V169.141H291.942V165.001H290.064V168.72H288.415V165.001H286.481ZM284.832 178.713V176.555L288.018 174.305L284.832 172.061V169.916L289.227 173.115L293.591 169.966V172.123L290.442 174.33L293.591 176.518V178.663L289.227 175.514L284.832 178.713ZM293.591 183.585C293.591 184.436 293.312 185.149 292.754 185.723C292.196 186.302 291.502 186.591 290.671 186.591C289.841 186.591 289.146 186.302 288.589 185.723C288.031 185.149 287.752 184.436 287.752 183.585V181.514H284.832V179.76H293.591V183.585ZM289.401 183.548C289.401 183.903 289.52 184.199 289.76 184.434C290.004 184.67 290.308 184.787 290.671 184.787C291.035 184.787 291.337 184.67 291.576 184.434C291.82 184.199 291.942 183.903 291.942 183.548V181.514H289.401V183.548ZM286.481 189.499V193.701H284.832V187.744H293.591V193.639H291.942V189.499H290.064V193.218H288.415V189.499H286.481ZM284.832 199.937L287.956 197.917V196.875H284.832V195.121H293.591V198.853C293.591 199.696 293.316 200.402 292.767 200.973C292.221 201.543 291.539 201.828 290.721 201.828C290.101 201.828 289.554 201.646 289.078 201.283C288.607 200.923 288.279 200.448 288.093 199.857L284.832 202.045V199.937ZM291.942 196.875H289.481V198.815C289.481 199.158 289.597 199.446 289.828 199.677C290.064 199.909 290.357 200.024 290.709 200.024C291.06 200.024 291.353 199.909 291.589 199.677C291.824 199.446 291.942 199.158 291.942 198.815V196.875ZM284.832 203.155H293.591V204.909H284.832V203.155ZM286.481 208.442V212.645H284.832V206.688H293.591V212.583H291.942V208.442H290.064V212.162H288.415V208.442H286.481ZM293.591 219.83V221.584H284.832V219.805L290.585 215.819H284.832V214.065H293.591V215.844L287.838 219.83H293.591ZM284.677 227.541C284.677 226.892 284.793 226.283 285.024 225.712C285.26 225.142 285.578 224.652 285.979 224.243C286.38 223.834 286.859 223.512 287.417 223.276C287.979 223.041 288.578 222.923 289.215 222.923C289.851 222.923 290.448 223.041 291.006 223.276C291.568 223.512 292.05 223.834 292.45 224.243C292.851 224.652 293.167 225.142 293.399 225.712C293.63 226.283 293.746 226.892 293.746 227.541C293.746 228.351 293.57 229.095 293.219 229.773C292.868 230.45 292.386 230.994 291.775 231.403L290.839 229.89C291.219 229.634 291.516 229.302 291.731 228.892C291.946 228.483 292.054 228.033 292.054 227.541C292.054 226.739 291.783 226.068 291.242 225.526C290.7 224.989 290.025 224.721 289.215 224.721C288.405 224.721 287.727 224.989 287.181 225.526C286.64 226.068 286.369 226.739 286.369 227.541C286.369 228.033 286.477 228.483 286.692 228.892C286.907 229.302 287.204 229.634 287.584 229.89L286.648 231.403C286.037 230.994 285.555 230.45 285.204 229.773C284.853 229.095 284.677 228.351 284.677 227.541ZM286.481 234.341V238.544H284.832V232.587H293.591V238.482H291.942V234.341H290.064V238.061H288.415V234.341H286.481Z" fill="#004E50"/>
</svg>
